<svg width="121" height="36" viewBox="0 0 121 36" fill="none" xmlns="http://www.w3.org/2000/svg">
<path d="M28.7156 6.91309C29.2594 8.54254 29.5572 10.2847 29.5572 12.097C29.5572 17.979 26.317 23.0793 21.655 25.9629C21.6017 25.9963 21.5486 26.0298 21.4946 26.0622C21.4766 26.0728 21.4594 26.0844 21.4415 26.095L21.44 26.0935C20.0434 26.9172 18.4162 27.3916 16.6774 27.3916C11.4907 27.3916 7.28587 23.1869 7.28587 18C7.28587 14.7643 8.9224 11.9111 11.4127 10.2223C7.06006 12.88 3.79761 18.2337 3.79761 23.9033C3.79761 25.7182 4.0992 27.4613 4.64454 29.0925C7.6352 32.3352 11.9184 34.3681 16.6774 34.3681C25.7171 34.3681 33.0455 27.04 33.0455 18C33.0455 13.7222 31.4026 9.82924 28.7156 6.91309Z" fill="#EDEDED"/>
<path d="M11.4129 10.2222C12.9146 9.20372 14.7264 8.60836 16.6774 8.60836C21.8641 8.60836 26.0689 12.813 26.0689 17.9999C26.0689 21.3581 24.3054 24.3025 21.6549 25.9628C26.317 23.0792 29.5572 17.9789 29.5572 12.0969C29.5572 10.2845 29.2594 8.54243 28.7156 6.91298C25.7247 3.6672 21.4395 1.63208 16.6776 1.63208C7.63796 1.63208 0.30957 8.96022 0.30957 18.0002C0.30957 22.2808 1.95443 26.176 4.64452 29.0926C4.09917 27.4612 3.79758 25.7183 3.79758 23.9034C3.79784 18.2338 7.06029 12.8799 11.4129 10.2222Z" fill="#23A26D"/>
<path d="M58.939 14.7636H54.9124C54.8389 14.2427 54.6887 13.7799 54.462 13.3754C54.2352 12.9648 53.9441 12.6155 53.5886 12.3274C53.2331 12.0394 52.8225 11.8187 52.3567 11.6655C51.8971 11.5123 51.3976 11.4357 50.8582 11.4357C49.8837 11.4357 49.0349 11.6778 48.3117 12.1619C47.5885 12.64 47.0277 13.3387 46.6294 14.258C46.231 15.1712 46.0318 16.2805 46.0318 17.5859C46.0318 18.9281 46.231 20.0558 46.6294 20.969C47.0339 21.8822 47.5977 22.5717 48.3209 23.0375C49.0441 23.5033 49.8807 23.7362 50.8306 23.7362C51.3639 23.7362 51.8572 23.6657 52.3108 23.5247C52.7704 23.3838 53.178 23.1785 53.5334 22.9088C53.8889 22.633 54.1831 22.299 54.416 21.9067C54.655 21.5145 54.8205 21.0671 54.9124 20.5645L58.939 20.5829C58.8349 21.4471 58.5744 22.2806 58.1576 23.0835C57.747 23.8802 57.1923 24.5942 56.4937 25.2255C55.8011 25.8506 54.9737 26.347 54.0115 26.7148C53.0554 27.0764 51.9737 27.2572 50.7663 27.2572C49.087 27.2572 47.5854 26.8772 46.2616 26.1172C44.9439 25.3572 43.902 24.2571 43.1359 22.8169C42.376 21.3766 41.996 19.6329 41.996 17.5859C41.996 15.5328 42.3821 13.7861 43.1543 12.3458C43.9266 10.9055 44.9746 9.80848 46.2984 9.05464C47.6222 8.29467 49.1115 7.91468 50.7663 7.91468C51.8572 7.91468 52.8685 8.0679 53.8 8.37434C54.7378 8.68078 55.5682 9.12818 56.2914 9.71655C57.0146 10.2988 57.603 11.0128 58.0565 11.8586C58.5162 12.7043 58.8103 13.6727 58.939 14.7636ZM62.4814 26.9998V12.879H66.3977V26.9998H62.4814ZM64.4487 11.0588C63.8665 11.0588 63.367 10.8657 62.9503 10.4796C62.5396 10.0873 62.3343 9.61849 62.3343 9.07303C62.3343 8.53369 62.5396 8.07097 62.9503 7.68485C63.367 7.29261 63.8665 7.09649 64.4487 7.09649C65.031 7.09649 65.5274 7.29261 65.938 7.68485C66.3548 8.07097 66.5632 8.53369 66.5632 9.07303C66.5632 9.61849 66.3548 10.0873 65.938 10.4796C65.5274 10.8657 65.031 11.0588 64.4487 11.0588ZM70.2963 26.9998V12.879H74.0931V15.3428H74.2402C74.4976 14.4664 74.9297 13.8045 75.5364 13.3571C76.1432 12.9035 76.8418 12.6768 77.6325 12.6768C77.8286 12.6768 78.04 12.689 78.2668 12.7135C78.4936 12.738 78.6927 12.7718 78.8643 12.8147V16.2897C78.6805 16.2345 78.4261 16.1855 78.1013 16.1426C77.7765 16.0997 77.4792 16.0782 77.2096 16.0782C76.6335 16.0782 76.1186 16.2039 75.6651 16.4552C75.2177 16.7003 74.8622 17.0435 74.5987 17.4848C74.3413 17.9261 74.2126 18.4348 74.2126 19.0109V26.9998H70.2963ZM90.3243 32.295V24.7382H90.2048C90.021 25.1305 89.7605 25.5197 89.4234 25.9058C89.0925 26.2858 88.6604 26.6014 88.1272 26.8527C87.6001 27.1039 86.9566 27.2296 86.1966 27.2296C85.1241 27.2296 84.1526 26.9538 83.2824 26.4022C82.4182 25.8445 81.7318 25.0263 81.2231 23.9476C80.7205 22.8628 80.4692 21.5329 80.4692 19.9578C80.4692 18.3398 80.7297 16.9945 81.2507 15.922C81.7716 14.8433 82.4642 14.0374 83.3283 13.5041C84.1986 12.9648 85.1516 12.6951 86.1874 12.6951C86.978 12.6951 87.6369 12.83 88.1639 13.0996C88.6971 13.3632 89.1262 13.6941 89.451 14.0925C89.7819 14.4848 90.0332 14.8709 90.2048 15.2509H90.3703V12.879H94.2314V32.295H90.3243ZM87.4377 24.1131C88.0689 24.1131 88.6021 23.9415 89.0373 23.5983C89.4786 23.2489 89.8157 22.7617 90.0485 22.1366C90.2876 21.5114 90.4071 20.779 90.4071 19.9394C90.4071 19.0997 90.2906 18.3704 90.0577 17.7514C89.8248 17.1324 89.4878 16.6543 89.0465 16.3173C88.6052 15.9802 88.0689 15.8116 87.4377 15.8116C86.7942 15.8116 86.2518 15.9863 85.8105 16.3356C85.3692 16.685 85.0352 17.1692 84.8084 17.7882C84.5817 18.4072 84.4683 19.1243 84.4683 19.9394C84.4683 20.7606 84.5817 21.4869 84.8084 22.1182C85.0413 22.7433 85.3753 23.2336 85.8105 23.5891C86.2518 23.9384 86.7942 24.1131 87.4377 24.1131ZM102.053 8.17209V26.9998H98.1369V8.17209H102.053ZM112.387 27.2756C110.935 27.2756 109.684 26.9814 108.636 26.393C107.594 25.7985 106.791 24.9589 106.228 23.8741C105.664 22.7831 105.382 21.493 105.382 20.0037C105.382 18.5512 105.664 17.2764 106.228 16.1794C106.791 15.0823 107.585 14.2273 108.609 13.6145C109.638 13.0016 110.846 12.6951 112.231 12.6951C113.162 12.6951 114.03 12.8453 114.832 13.1456C115.641 13.4398 116.346 13.8841 116.947 14.4786C117.554 15.0731 118.026 15.8208 118.363 16.7218C118.7 17.6166 118.868 18.6646 118.868 19.8658V20.9414H106.945V18.5144H115.182C115.182 17.9506 115.059 17.4511 114.814 17.0159C114.569 16.5808 114.229 16.2407 113.794 15.9955C113.365 15.7442 112.865 15.6186 112.295 15.6186C111.701 15.6186 111.174 15.7565 110.714 16.0323C110.26 16.3019 109.905 16.6666 109.647 17.1263C109.39 17.5798 109.258 18.0854 109.252 18.6431V20.9506C109.252 21.6493 109.381 22.253 109.638 22.7617C109.902 23.2704 110.273 23.6626 110.751 23.9384C111.229 24.2142 111.796 24.3521 112.451 24.3521C112.887 24.3521 113.285 24.2908 113.647 24.1683C114.008 24.0457 114.318 23.8618 114.575 23.6167C114.832 23.3715 115.029 23.0712 115.163 22.7157L118.786 22.9548C118.602 23.825 118.225 24.585 117.655 25.2347C117.091 25.8782 116.362 26.3807 115.467 26.7423C114.578 27.0978 113.552 27.2756 112.387 27.2756Z" fill="#EDEDED"/>
</svg>
