<svg width="400" height="100" font-size="100" viewBox="0 0 146 44" fill="#181C18" xmlns="http://www.w3.org/2000/svg">
<path d="M34.7718 8.6225C35.4258 10.582 35.7839 12.6769 35.7839 14.8563C35.7839 21.9297 31.8874 28.063 26.2811 31.5306C26.217 31.5707 26.1532 31.6111 26.0882 31.65C26.0667 31.6628 26.046 31.6767 26.0245 31.6895L26.0226 31.6877C24.3432 32.6782 22.3864 33.2486 20.2954 33.2486C14.0583 33.2486 9.00176 28.1924 9.00176 21.955C9.00176 18.0639 10.9697 14.6328 13.9644 12.6019C8.73021 15.798 4.80698 22.2359 4.80698 29.0539C4.80698 31.2363 5.16966 33.3325 5.82545 35.2941C9.42184 39.1936 14.5725 41.6382 20.2954 41.6382C31.166 41.6382 39.9787 32.8258 39.9787 21.955C39.9787 16.8107 38.0031 12.1293 34.7718 8.6225Z" fill="#181C18"/>
<path d="M13.9647 12.6019C15.7705 11.3772 17.9493 10.6612 20.2955 10.6612C26.5327 10.6612 31.5892 15.7174 31.5892 21.9549C31.5892 25.9932 29.4684 29.534 26.2812 31.5306C31.8874 28.063 35.7839 21.9297 35.7839 14.8563C35.7839 12.6769 35.4258 10.5819 34.7718 8.62245C31.1752 4.71928 26.0221 2.27197 20.2958 2.27197C9.42522 2.27197 0.612549 11.0843 0.612549 21.9552C0.612549 27.1028 2.59056 31.787 5.82549 35.2943C5.16969 33.3324 4.80702 31.2366 4.80702 29.0541C4.80732 22.2362 8.73054 15.7979 13.9647 12.6019Z" fill="#181C18"/>
<path d="M71.1166 17.7407H66.2744C66.186 17.1142 66.0054 16.5578 65.7327 16.0713C65.46 15.5775 65.11 15.1574 64.6825 14.811C64.255 14.4646 63.7612 14.1993 63.2011 14.0151C62.6483 13.8308 62.0477 13.7387 61.3991 13.7387C60.2273 13.7387 59.2065 14.0298 58.3368 14.612C57.4671 15.1869 56.7928 16.0271 56.3137 17.1326C55.8347 18.2308 55.5951 19.5648 55.5951 21.1346C55.5951 22.7486 55.8347 24.1047 56.3137 25.2029C56.8002 26.301 57.4782 27.1302 58.3479 27.6903C59.2175 28.2504 60.2236 28.5305 61.3659 28.5305C62.0071 28.5305 62.6004 28.4457 63.1458 28.2762C63.6986 28.1067 64.1887 27.8598 64.6162 27.5355C65.0436 27.2039 65.3974 26.8022 65.6775 26.3305C65.9649 25.8588 66.1639 25.3208 66.2744 24.7165L71.1166 24.7386C70.9913 25.7778 70.6781 26.7801 70.1769 27.7456C69.6831 28.7037 69.0161 29.5623 68.1759 30.3214C67.3431 31.0732 66.3481 31.6702 65.191 32.1124C64.0413 32.5472 62.7405 32.7646 61.2885 32.7646C59.2691 32.7646 57.4635 32.3077 55.8715 31.3938C54.2869 30.4799 53.034 29.157 52.1128 27.425C51.1989 25.693 50.7419 23.5962 50.7419 21.1346C50.7419 18.6656 51.2062 16.5651 52.1349 14.8331C53.0635 13.1012 54.3238 11.7819 55.9157 10.8754C57.5077 9.9615 59.2986 9.50456 61.2885 9.50456C62.6004 9.50456 63.8165 9.68881 64.9368 10.0573C66.0644 10.4258 67.063 10.9638 67.9327 11.6714C68.8024 12.3715 69.5099 13.2301 70.0553 14.2472C70.6081 15.2643 70.9618 16.4288 71.1166 17.7407ZM75.3764 32.4551V15.4743H80.0859V32.4551H75.3764ZM77.7422 13.2854C77.0421 13.2854 76.4414 13.0533 75.9402 12.5889C75.4464 12.1173 75.1995 11.5534 75.1995 10.8975C75.1995 10.2489 75.4464 9.69249 75.9402 9.22818C76.4414 8.75649 77.0421 8.52065 77.7422 8.52065C78.4424 8.52065 79.0394 8.75649 79.5331 9.22818C80.0343 9.69249 80.2849 10.2489 80.2849 10.8975C80.2849 11.5534 80.0343 12.1173 79.5331 12.5889C79.0394 13.0533 78.4424 13.2854 77.7422 13.2854ZM84.7741 32.4551V15.4743H89.3399V18.4371H89.5168C89.8263 17.3832 90.3459 16.5872 91.0756 16.0492C91.8052 15.5038 92.6454 15.2311 93.5961 15.2311C93.832 15.2311 94.0862 15.2459 94.3589 15.2754C94.6316 15.3048 94.8712 15.3454 95.0775 15.397V19.5758C94.8564 19.5095 94.5506 19.4505 94.1599 19.3989C93.7693 19.3473 93.4119 19.3215 93.0876 19.3215C92.3948 19.3215 91.7757 19.4726 91.2303 19.7748C90.6923 20.0696 90.2648 20.4823 89.9479 21.013C89.6384 21.5436 89.4836 22.1553 89.4836 22.8481V32.4551H84.7741ZM108.859 38.8229V29.7355H108.715C108.494 30.2072 108.181 30.6752 107.775 31.1395C107.377 31.5965 106.858 31.976 106.216 32.2782C105.583 32.5804 104.809 32.7315 103.895 32.7315C102.605 32.7315 101.437 32.3998 100.39 31.7365C99.3512 31.0658 98.5257 30.0819 97.914 28.7848C97.3096 27.4803 97.0075 25.8809 97.0075 23.9868C97.0075 22.0411 97.3207 20.4234 97.9472 19.1336C98.5736 17.8365 99.4064 16.8673 100.446 16.2261C101.492 15.5775 102.638 15.2532 103.884 15.2532C104.835 15.2532 105.627 15.4154 106.261 15.7397C106.902 16.0566 107.418 16.4546 107.808 16.9336C108.206 17.4053 108.509 17.8696 108.715 18.3266H108.914V15.4743H113.557V38.8229H108.859ZM105.387 28.9838C106.146 28.9838 106.788 28.7774 107.311 28.3647C107.842 27.9446 108.247 27.3586 108.527 26.6069C108.814 25.8551 108.958 24.9744 108.958 23.9647C108.958 22.955 108.818 22.078 108.538 21.3336C108.258 20.5892 107.853 20.0143 107.322 19.609C106.791 19.2036 106.146 19.0009 105.387 19.0009C104.613 19.0009 103.961 19.211 103.431 19.6311C102.9 20.0512 102.498 20.6334 102.225 21.3778C101.953 22.1222 101.816 22.9845 101.816 23.9647C101.816 24.9523 101.953 25.8257 102.225 26.5848C102.506 27.3365 102.907 27.9261 103.431 28.3536C103.961 28.7737 104.613 28.9838 105.387 28.9838ZM122.963 9.8141V32.4551H118.254V9.8141H122.963ZM135.39 32.7867C133.643 32.7867 132.14 32.433 130.879 31.7254C129.626 31.0105 128.661 30.0008 127.983 28.6963C127.305 27.3844 126.966 25.833 126.966 24.0421C126.966 22.2954 127.305 20.7624 127.983 19.4431C128.661 18.1239 129.615 17.0958 130.846 16.3588C132.084 15.6217 133.536 15.2532 135.202 15.2532C136.322 15.2532 137.365 15.4338 138.331 15.7949C139.303 16.1487 140.151 16.683 140.873 17.3979C141.603 18.1128 142.17 19.012 142.576 20.0954C142.981 21.1714 143.184 22.4317 143.184 23.8763V25.1697H128.845V22.2512H138.751C138.751 21.5731 138.603 20.9724 138.308 20.4492C138.014 19.9259 137.605 19.5168 137.081 19.222C136.565 18.9199 135.965 18.7688 135.279 18.7688C134.564 18.7688 133.931 18.9346 133.378 19.2663C132.832 19.5906 132.405 20.0291 132.095 20.5818C131.786 21.1272 131.627 21.7353 131.62 22.4059V25.1808C131.62 26.021 131.775 26.7469 132.084 27.3586C132.401 27.9704 132.847 28.4421 133.422 28.7737C133.997 29.1054 134.679 29.2712 135.467 29.2712C135.991 29.2712 136.47 29.1975 136.904 29.0501C137.339 28.9027 137.711 28.6816 138.021 28.3868C138.331 28.092 138.566 27.7308 138.729 27.3034L143.084 27.5908C142.863 28.6374 142.41 29.5513 141.724 30.3325C141.046 31.1063 140.169 31.7107 139.093 32.1455C138.025 32.573 136.79 32.7867 135.39 32.7867Z" fill="#181C18"/>
</svg>
